# xmcd
#
# Track frame offsets:
#	150
#	21161
#	33909
#	52983
#	69811
#	87992
#	105136
#	121765
#	139877
#	157381
#	175535
#	197514
#	214954
#
# Disc length: 3109 seconds
#
# Revision: 1
# Processed by: cddbd v1.5.2PL0 Copyright (c) Steve Scherf et al.
# Submitted via: audiograbber 1.83.01
#
DISCID=a40c230d
DTITLE=Aaron Pritchett - Big Wheel
DYEAR=2008
DGENRE=Country
TTITLE0=Big Wheel
TTITLE1=Drivin' Song
TTITLE2=Lonely's To The Bone
TTITLE3=Gone
TTITLE4=On My Way To You
TTITLE5=The Weight
TTITLE6=Warm Safe Place
TTITLE7=You're Not Gonna Miss Me
TTITLE8=Done You Wrong
TTITLE9=Hold My Beer
TTITLE10=Something 'bout A Train
TTITLE11=The Weight (Feat. Tyler Conolly)
TTITLE12=Hold My Beer (Stadium Remix)
EXTD=
EXTT0=
EXTT1=
EXTT2=
EXTT3=
EXTT4=
EXTT5=
EXTT6=
EXTT7=
EXTT8=
EXTT9=
EXTT10=
EXTT11=
EXTT12=
PLAYORDER=
